<?xml version="1.0" encoding="utf-8"?>
<!-- Generator: Adobe Illustrator 26.3.1, SVG Export Plug-In . SVG Version: 6.00 Build 0)  -->
<svg version="1.1" id="Capa_1" xmlns="http://www.w3.org/2000/svg" xmlns:xlink="http://www.w3.org/1999/xlink" x="0px" y="0px"
	 viewBox="0 0 553.4 294.9" style="enable-background:new 0 0 553.4 294.9;" xml:space="preserve">
<style type="text/css">
	.st0{fill:#7B868C;}
	.st1{fill:#E50695;}
</style>
<g>
	<path class="st0" d="M83.2,179.7v9.2h-1.7l-0.4-2.3c-1.1,1.6-2.8,2.6-5.3,2.6c-4.8,0-8.3-3.7-8.3-8.4c0-4.8,3.4-8.4,8.3-8.4
		c2.7,0,5,1.1,6.4,3l-2.6,1.7c-0.9-1-2.1-1.7-3.8-1.7c-3.4,0-5.1,2.7-5.1,5.4c0,2.7,1.7,5.4,5.1,5.4c2.8,0,4.4-1.6,4.8-3.7H76v-2.7
		H83.2z"/>
	<path class="st0" d="M97.1,183c0,3.4-2.7,6.2-6.2,6.2c-3.5,0-6.2-2.7-6.2-6.2c0-3.5,2.7-6.2,6.2-6.2
		C94.5,176.9,97.1,179.6,97.1,183 M94.1,183c0-1.8-1.2-3.3-3.2-3.3c-1.9,0-3.2,1.5-3.2,3.3c0,1.8,1.2,3.3,3.2,3.3
		C92.9,186.4,94.1,184.9,94.1,183"/>
	<path class="st0" d="M111.2,183c0,3.1-2.1,6.2-5.7,6.2c-1.8,0-3-0.7-3.8-1.7v1.4h-2.9v-16.2h2.9v5.9c0.7-1,1.9-1.7,3.8-1.7
		C109.1,176.9,111.2,180,111.2,183 M108.2,183c0-1.8-1.2-3.3-3.2-3.3c-2,0-3.2,1.5-3.2,3.3c0,1.8,1.2,3.3,3.2,3.3
		C107,186.4,108.2,184.9,108.2,183"/>
	<path class="st0" d="M112.7,173.9c0-0.9,0.7-1.6,1.6-1.6c0.9,0,1.6,0.7,1.6,1.6c0,0.9-0.7,1.6-1.6,1.6
		C113.4,175.4,112.7,174.7,112.7,173.9 M112.8,177.2h2.9v11.8h-2.9V177.2z"/>
	<path class="st0" d="M129.2,184.2h-8.7c0.4,1.6,1.7,2.4,3.3,2.4c1.3,0,2.3-0.7,2.6-1.2l2.4,1.4c-1,1.3-2.8,2.4-5,2.4
		c-3.9,0-6.5-2.6-6.5-6.2c0-3.7,2.8-6.2,6-6.2C126.9,176.9,129.8,179.5,129.2,184.2 M126.3,181.9c-0.3-1.5-1.3-2.4-2.9-2.4
		c-1.4,0-2.6,0.9-2.9,2.4H126.3z"/>
	<path class="st0" d="M137.8,176.9v3.2c-3.5-0.4-3.9,1.8-3.9,4v4.8h-2.9v-11.8h2.9v1.9C134.7,177.6,136.4,176.9,137.8,176.9"/>
	<path class="st0" d="M150.1,181.8v7.1h-2.9v-6.5c0-1.5-0.6-2.6-2.3-2.6c-1.7,0-2.5,1.3-2.5,2.6v6.5h-2.9v-11.8h2.9v1.4
		c0.6-1,1.7-1.7,3.4-1.7C148.7,176.9,150.1,179.3,150.1,181.8"/>
	<path class="st0" d="M164.1,183c0,3.4-2.7,6.2-6.2,6.2c-3.5,0-6.2-2.7-6.2-6.2c0-3.5,2.7-6.2,6.2-6.2
		C161.4,176.9,164.1,179.6,164.1,183 M161.1,183c0-1.8-1.2-3.3-3.2-3.3c-1.9,0-3.2,1.5-3.2,3.3c0,1.8,1.2,3.3,3.2,3.3
		C159.9,186.4,161.1,184.9,161.1,183"/>
	<path class="st0" d="M183,172.7v16.2h-2.9v-1.4c-0.8,1-1.9,1.7-3.8,1.7c-3.6,0-5.7-3.1-5.7-6.2c0-3.1,2.1-6.2,5.7-6.2
		c1.8,0,3,0.7,3.8,1.7v-5.9H183z M179.9,183c0-1.8-1.1-3.3-3.2-3.3c-2,0-3.2,1.5-3.2,3.3c0,1.8,1.2,3.3,3.2,3.3
		C178.8,186.4,179.9,184.9,179.9,183"/>
	<path class="st0" d="M196.5,184.2h-8.7c0.4,1.6,1.7,2.4,3.3,2.4c1.3,0,2.3-0.7,2.6-1.2l2.4,1.4c-1,1.3-2.8,2.4-5,2.4
		c-3.9,0-6.5-2.6-6.5-6.2c0-3.7,2.8-6.2,6-6.2C194.2,176.9,197,179.5,196.5,184.2 M193.6,181.9c-0.3-1.5-1.3-2.4-2.9-2.4
		c-1.4,0-2.6,0.9-2.9,2.4H193.6z"/>
	<path class="st0" d="M51.6,207h-4.2v-3.3h10.3v12.2h-3.5l0.2-8.9L51.6,207z M34.2,204.3c0-6.9,4.9-12,11.8-12
		c3.9,0,7.3,1.7,9.3,4.5l-4.7,3.1c-1-1.3-2.6-2.2-4.6-2.2c-4,0-6.1,3.3-6.1,6.6 M39.8,204.3c0,3.3,2.1,6.6,6.1,6.6
		c3.8,0,5.4-3,5.9-4.7l2.9,0.4l1.2,1.1c-0.9,2.5-2.9,8.6-10,8.6c-6.9,0-11.8-5.1-11.8-12"/>
	<path class="st0" d="M76.5,199.1v16.8h-5.4v-1.5c-0.9,1.1-2.4,2-4.6,2c-4.2,0-6.2-3.3-6.2-6.7v-10.5h5.4v9.1c0,1.9,1.2,2.9,2.7,2.9
		c1.6,0,2.7-1,2.7-2.9v-9.1H76.5z"/>
	<path class="st0" d="M94.9,205.4v10.4h-5.4v-1.6c-0.9,1.3-2.9,2-4.6,2c-2.3,0-5.7-0.9-5.7-4.9c0-5.6,7.2-5.6,8.3-5.6h2v-0.1
		c0-1.6-0.8-2.7-2.7-2.7c-1.4,0-2.5,0.5-3.2,1.1l-3.5-2.4c1.8-1.9,4.3-3,7.6-3C93,198.7,94.9,201.4,94.9,205.4 M89.5,208.5h-0.4
		c-2.7,0-4.5,0.5-4.5,2.2c0,1.2,1,1.7,2.2,1.7c1.2,0,2.3-0.6,2.7-1.2V208.5z"/>
	<path class="st0" d="M115.7,192.7v23.2h-5.4v-1.6c-1,1.2-2.5,2.1-4.7,2.1c-5.2,0-8.1-4.4-8.1-8.8c0-4.4,2.8-8.8,8.1-8.8
		c2.3,0,3.7,0.9,4.7,2.1v-8.1H115.7z M110.1,207.5c0-2.3-1.6-3.6-3.6-3.6c-2.2,0-3.6,1.5-3.6,3.6c0,2.1,1.4,3.6,3.6,3.6
		C108.6,211.1,110.1,209.7,110.1,207.5"/>
	<path class="st0" d="M134,205.4v10.4h-5.4v-1.6c-0.9,1.3-2.9,2-4.6,2c-2.3,0-5.7-0.9-5.7-4.9c0-5.6,7.2-5.6,8.3-5.6h2v-0.1
		c0-1.6-0.8-2.7-2.8-2.7c-1.4,0-2.5,0.5-3.2,1.1l-3.5-2.4c1.8-1.9,4.3-3,7.6-3C132.1,198.7,134,201.4,134,205.4 M128.7,208.5h-0.4
		c-2.7,0-4.5,0.5-4.5,2.2c0,1.2,1,1.7,2.2,1.7c1.2,0,2.3-0.6,2.8-1.2V208.5z"/>
	<rect x="137.7" y="192.7" class="st0" width="5.4" height="23.2"/>
	<path class="st0" d="M161.4,205.4v10.4h-5.4v-1.6c-0.9,1.3-2.9,2-4.6,2c-2.3,0-5.7-0.9-5.7-4.9c0-5.6,7.2-5.6,8.3-5.6h2v-0.1
		c0-1.6-0.8-2.7-2.8-2.7c-1.4,0-2.5,0.5-3.2,1.1l-3.5-2.4c1.8-1.9,4.3-3,7.6-3C159.5,198.7,161.4,201.4,161.4,205.4 M156.1,208.5
		h-0.4c-2.7,0-4.5,0.5-4.5,2.2c0,1.2,1,1.7,2.2,1.7c1.2,0,2.3-0.6,2.8-1.2V208.5z"/>
	<path class="st0" d="M165,199.1h5.4v16.2c0,3.7-1.7,6.7-6.1,6.7c-0.8,0-1.7-0.1-2.3-0.2v-4.7c2.1,0.2,3-0.3,3-2.4V199.1z
		 M164.9,194.4c0-1.6,1.3-2.8,2.8-2.8c1.6,0,2.8,1.3,2.8,2.8c0,1.6-1.3,2.8-2.8,2.8C166.2,197.2,164.9,195.9,164.9,194.4"/>
	<path class="st0" d="M188.8,205.4v10.4h-5.4v-1.6c-0.9,1.3-2.9,2-4.6,2c-2.3,0-5.7-0.9-5.7-4.9c0-5.6,7.2-5.6,8.3-5.6h2v-0.1
		c0-1.6-0.8-2.7-2.8-2.7c-1.4,0-2.5,0.5-3.2,1.1l-3.5-2.4c1.8-1.9,4.3-3,7.6-3C186.9,198.7,188.8,201.4,188.8,205.4 M183.4,208.5
		H183c-2.7,0-4.5,0.5-4.5,2.2c0,1.2,1,1.7,2.2,1.7c1.2,0,2.3-0.6,2.8-1.2V208.5z"/>
	<path class="st0" d="M203.1,198.7v5.8c-4.8-0.7-5.3,2-5.3,4.8v6.6h-5.4v-16.8h5.4v2.6C199,199.7,201.1,198.7,203.1,198.7"/>
	<path class="st0" d="M219.8,205.4v10.4h-5.4v-1.6c-0.9,1.3-2.9,2-4.6,2c-2.3,0-5.7-0.9-5.7-4.9c0-5.6,7.2-5.6,8.3-5.6h2v-0.1
		c0-1.6-0.8-2.7-2.7-2.7c-1.4,0-2.5,0.5-3.2,1.1l-3.5-2.4c1.8-1.9,4.3-3,7.6-3C217.9,198.7,219.8,201.4,219.8,205.4 M214.4,208.5
		H214c-2.7,0-4.5,0.5-4.5,2.2c0,1.2,1,1.7,2.2,1.7c1.2,0,2.3-0.6,2.7-1.2V208.5z"/>
	<path class="st0" d="M137.9,124.6l-0.8,0.5l0.1,0.1c0.2,0.3,0.6,0.4,0.8,0.2l0.5-0.6l-0.2-0.1C138.2,124.6,138,124.6,137.9,124.6"
		/>
	<path class="st0" d="M116.8,125.2l0.1-0.1l-0.8-0.5c-0.1-0.1-0.3-0.1-0.4,0l-0.2,0.1l0.5,0.6C116.2,125.6,116.6,125.5,116.8,125.2"
		/>
	<path class="st0" d="M99.8,148.3l27,9.1l27.3-9.1V90.1H99.8V148.3z M115.8,145.6h-1.1l-0.2-0.5l-0.9-2.5l-0.3,0.5h-0.3v-1.2
		l0.3-0.1l0.2-0.1c0.5-0.2,0.6-0.4,0.6-0.8c0-0.3-0.1-0.5-0.3-0.7l-0.1,0l-0.5-0.3l-0.6-0.4c1.2-1.7,3.4-2.1,5-2.1v1.1
		c0,0,0,0,0,0.1v1.5c0,0.9-0.4,1.7-1.1,2.2l-0.1,0.1c-0.1,0.1-0.2,0.2-0.3,0.3l0,0h0c0,0,0,0-0.1,0c0,0,0,0,0,0
		c-0.5,0.4-0.1,0.9-0.1,0.9c0,0,0,0,0.1,0l2.4,0.4l0.6,1.8L115.8,145.6L115.8,145.6z M124.5,144.9c0.4-0.7,1.2-0.6,1.2-0.6V125
		c0.4,0.1,0.8,0.1,1.2,0.1c0.5,0,0.9,0,1.4-0.1v19.4c0,0,0.8-0.2,1.2,0.6H124.5z M140.3,141.7l0.2,0.1l0.3,0.1v1.2h-0.3l-0.3-0.5
		l-0.9,2.5l-0.2,0.5h-1.1v0h-3.2l0.6-1.8l2.4-0.4c0,0,0,0,0.1,0c0,0,0.4-0.5-0.1-0.9c0,0,0,0,0,0c0,0,0,0-0.1,0l0,0
		c-0.1-0.1-0.2-0.2-0.3-0.3l-0.1-0.1c-0.7-0.5-1.1-1.3-1.1-2.2v-1.5c0,0,0,0,0-0.1v-1.1c1.6,0,3.7,0.5,5,2.1l-0.6,0.4l-0.5,0.3
		l-0.1,0c-0.2,0.1-0.3,0.4-0.3,0.7C139.8,141.3,139.9,141.6,140.3,141.7 M144.5,127.8c0,1.2-0.4,2.3-1.1,3.2
		c-0.2,0.3-0.7,0.7-1.5,1.3c-1.2,0.8-1.7,1.6-1.7,2.7c0,0,0.4-0.9,2.4-2c0.2,0.7,0.5,1.3,0.9,1.8c0.4,0.4,1.5,1.5,3.1,0.8
		c0.2-0.1,0.3-0.2,0.4-0.3c0.7-0.7,0.7-1.8,0.1-2.5l-0.3-0.3c-0.5-0.5-0.7-1.2-0.7-1.9v-1.7c0-1.4,1.1-2.5,2.5-2.5
		c1.4,0,2.5,1.1,2.5,2.5v0.3v0v1.1c-0.6,0-1.1-0.5-1.1-1.1v-0.3c0-0.7-0.6-1.4-1.4-1.4c-0.7,0-1.4,0.6-1.4,1.4v1.7
		c0,0.4,0.2,0.9,0.4,1.2l0.3,0.3c1,1.2,0.9,2.9-0.2,4c-0.6,0.6-1.4,0.9-2.2,0.9h-0.7c0,0.4-0.1,3.3,2.4,4.1l0.6,0.2v1.2h-0.3
		l-0.4-0.7l-0.6,3.5l-0.1,0.5c0,0-1.2,0-1.2,0h-3.2l0.7-1.8l2.1-0.3h0c0,0,0.4-0.7-0.4-0.8l0,0c-0.2,0-0.4-0.1-0.5-0.1
		c-0.6-0.2-1.2-0.5-1.6-1c-0.3-0.3-0.6-0.7-0.8-1.2c-0.1-0.2-0.2-0.5-0.2-0.7c0,0-0.3-2.4-3.4-3.2l-4.8-1.2l0,0.1
		c-0.1,0.3-0.3,0.6-0.7,0.6h-1.7l0.4-2.1l4.6-0.3c0-0.2,0-0.4,0.1-0.7l-2.2,0.1l-1.8-3.4h-0.2c-0.3,0-0.5-0.2-0.6-0.4l-0.8-1.9h2.4
		l2.6,3.5l2.1,0c0.1-0.2,0.3-0.3,0.5-0.5c0.2-0.2,0.4-0.4,0.5-0.6c1.4-1.6,1.1-2.6,1.1-2.6c-0.2,0.5-0.4,0.7-0.6,0.9h0l0,0
		c-0.1,0.1-0.2,0.2-0.4,0.2l-1.7,1.2c-0.2,0.2-0.6,0.1-0.7-0.2l-0.3-1c0,0,0.9-0.1,1.4-0.3c0.4-0.1,0.7-0.3,0.7-0.7
		c0-0.4-0.3-0.7-0.7-0.7c-0.4,0-0.6,0.2-1,0.6c-0.1,0.2-0.4,0.3-0.5,0.5c-0.2,0.2-0.4,0.1-0.6,0l-1-1.2l3.1-1.8l0.8-0.5l-1.1,0.2
		l-0.7-0.5c-0.1-0.1-0.1-0.2-0.1-0.4c0,0,0,0,0,0c0,0,0-0.1,0.1-0.1c0.3-0.5,0.8-0.8,1.3-1c1.8-0.9,4-0.4,5.5,1
		c1.2,1.1,1.8,2.7,1.7,4.4C144.5,127.6,144.5,127.7,144.5,127.8C144.5,127.7,144.5,127.8,144.5,127.8 M114.2,106.7
		C114.2,106.7,114.2,106.7,114.2,106.7c0-4,3.1-7.3,6.9-7.3c1.1-2.4,3.5-4,6.2-4c2.7,0,5.1,1.7,6.2,4.1c3.5,0.4,6.2,3.5,6.2,7.2
		c0,0,0,0,0,0c1.9,1.3,3.2,3.5,3.2,6.1c0,4-3.1,7.2-6.9,7.2c-0.4,0-0.7,0-1-0.1c-0.3,0-0.6-0.1-0.9-0.2c-1.4,1.9-3.5,3.2-5.8,3.6
		c-0.5,0.1-0.9,0.1-1.4,0.1c-0.4,0-0.8,0-1.2-0.1c-2.4-0.3-4.5-1.7-6-3.6c-0.3,0.1-0.6,0.1-0.9,0.2c-0.3,0-0.6,0.1-0.9,0.1
		c-3.8,0-6.9-3.2-6.9-7.2C111,110.3,112.3,108,114.2,106.7 M102.9,129.1L102.9,129.1v-0.3c0-1.4,1.1-2.5,2.5-2.5
		c1.4,0,2.5,1.1,2.5,2.5v1.7c0,0.7-0.2,1.4-0.7,1.9l-0.3,0.3c-0.6,0.7-0.6,1.8,0.1,2.5c0.1,0.1,0.3,0.2,0.4,0.3
		c1.5,0.7,2.7-0.3,3.1-0.8c0.4-0.5,0.8-1.1,0.9-1.8c2,1,2.4,2,2.4,2c0-1.1-0.5-1.8-1.7-2.7c-0.8-0.6-1.3-1.1-1.5-1.3
		c-0.7-0.9-1.1-2-1.1-3.2c0,0,0,0,0,0c0-0.1,0-0.1,0-0.2c-0.1-1.6,0.5-3.2,1.7-4.4c1.4-1.4,3.7-1.9,5.5-1c0.5,0.2,1,0.6,1.3,1
		c0,0,0,0.1,0.1,0.1c0,0,0,0,0,0h0c0,0.1,0,0.3-0.1,0.4l-0.7,0.5l-1.1-0.2l0.8,0.5h0l3.1,1.8l-1,1.2c-0.2,0.2-0.4,0.2-0.6,0
		c-0.2-0.1-0.4-0.3-0.6-0.5c-0.4-0.4-0.6-0.6-1-0.6c-0.4,0-0.7,0.3-0.7,0.7c0,0.4,0.3,0.6,0.7,0.7c0.5,0.2,1.4,0.3,1.4,0.3l-0.3,1
		c-0.1,0.3-0.5,0.4-0.7,0.2l-1.7-1.2c-0.1-0.1-0.3-0.2-0.4-0.2l0,0h0c-0.2-0.2-0.4-0.5-0.6-0.9c0,0-0.3,1,1.1,2.6
		c0.2,0.2,0.4,0.4,0.5,0.6c0.2,0.2,0.3,0.3,0.5,0.5l2.1,0l2.6-3.5h2.4l-0.8,1.9c-0.1,0.3-0.4,0.4-0.6,0.4h-0.2l-1.8,3.4l-2.2-0.1
		c0.1,0.2,0.1,0.4,0.1,0.7l4.6,0.3l0.4,2.1h-1.7c-0.3,0-0.6-0.2-0.7-0.6l0-0.1l-4.8,1.2c-3.1,0.8-3.4,3.2-3.4,3.2
		c-0.1,0.3-0.1,0.5-0.2,0.7c-0.2,0.4-0.5,0.8-0.8,1.2c-0.5,0.4-1,0.8-1.6,1c-0.2,0.1-0.4,0.1-0.5,0.1l0,0c-0.7,0.1-0.4,0.8-0.4,0.8
		h0l2.1,0.3l0.7,1.8h-3.2c0,0-1.2,0-1.2,0l-0.1-0.5l-0.6-3.5l-0.4,0.7h-0.3v-1.2l0.6-0.2c2.5-0.8,2.4-3.7,2.4-4.1h-0.8
		c-0.8,0-1.6-0.3-2.2-0.9c-1.1-1.1-1.1-2.9-0.2-4l0.3-0.3c0.3-0.3,0.4-0.8,0.4-1.2v-1.7c0-0.7-0.6-1.4-1.4-1.4
		c-0.7,0-1.4,0.6-1.4,1.4v0.3c0,0.6-0.5,1.1-1.1,1.1V129.1z"/>
	<path class="st0" d="M197.6,98.2c-0.4-0.4-0.8-0.8-1.3-1.2c-0.1-0.1-0.6-0.5-0.9-0.7c-0.1-0.1-0.2-0.1-0.3-0.2c0,0,0,0,0,0
		c0,0,0.3-0.1,0.7-0.3c0.2-0.1,0.4-0.1,0.6-0.2c0.2-0.1,0.4-0.1,0.6-0.2c0.1,0,0.2-0.1,0.3-0.1c0.6-0.2,1-0.3,1-0.3
		c-2-2.9-4.7-3.8-4.7-3.8c-1.8-0.7-3.8-1.1-6.1-1.1c-1.8,0-3.7,0.3-5.4,0.7c-1.7,0.5-3.4,1.3-5.1,1.8c-1.1,0.3-2.1,0.3-3,0
		c-2-0.6-3.9-1.8-5.8-2.6c0.5-0.1,1-0.3,1.4-0.4c8.3-2.8,11.8-9.2,11.8-16.7c0-6.5-3.7-12.6-9.3-15.9c-0.2-0.1-0.4-0.2-0.6-0.3
		c-0.1,0-0.1-0.1-0.2-0.1c0,0,0,0,0,0c-0.1,0-0.1-0.1-0.2-0.1c-0.1,0-0.1-0.1-0.2-0.1c-0.1,0-0.2-0.1-0.2-0.1
		c-0.1-0.1-0.2-0.1-0.3-0.2c-0.1,0-0.2-0.1-0.3-0.1c-0.1,0-0.2-0.1-0.3-0.1c-0.1,0-0.2-0.1-0.3-0.1c0,0-0.1,0-0.1,0
		c-0.1,0-0.1,0-0.2-0.1c0,0,0,0,0,0c-0.1,0-0.2-0.1-0.3-0.1c-0.1,0-0.2-0.1-0.3-0.1c-0.1,0-0.2-0.1-0.3-0.1c-0.1,0-0.2,0-0.2-0.1
		c0,0,0,0,0,0c-0.1,0-0.3-0.1-0.4-0.1h0c0,0-0.1,0-0.1,0h0c-0.7-0.2-1.5-0.3-2.2-0.4c0,0,0,0,0,0c0,0,0,0,0,0c-0.2,0-0.4,0-0.5-0.1
		c0,0,0,0,0,0c0,0,0,0-0.1,0h0c-0.2,0-0.4,0-0.5,0c0,0,0,0,0,0c0,0,0,0-0.1,0h0c-0.2,0-0.4,0-0.5,0h0c0,0,0,0-0.1,0h0
		c-0.2,0-0.4,0-0.6,0c-0.7,0-1.5,0-2.2,0.1c0,0,0,0,0,0c-0.2,0-0.3,0-0.5,0.1c0,0,0,0-0.1,0c-0.9,0.1-1.8,0.3-2.7,0.6c0,0,0,0,0,0
		c-0.2,0.1-0.4,0.1-0.5,0.2c0,0,0,0,0,0c-0.9,0.3-1.8,0.7-2.6,1.1c-0.2,0.1-0.4,0.2-0.6,0.4c0,0,0,0,0,0c-0.2,0.1-0.4,0.2-0.6,0.4
		c0,0,0,0,0,0c0,0,0,0-0.1,0l0,0c-0.2,0.1-0.3,0.2-0.5,0.4c0,0,0,0,0,0c0,0-0.1,0-0.1,0.1c0,0,0,0,0,0c-0.2,0.1-0.4,0.3-0.6,0.4
		c-0.7,0.6-1.4,1.2-2,2c-3.6,4.3-4.1,10.7-0.5,15.2c1,1.2,2.1,2.2,3.5,3c4.2,2.6,7.7,0.5,7.7,0.5c-1-0.7-2.8-3.9-2.8-3.9
		c0.5,0.1,0.9,0.1,1.4,0.1c4.2,0.2,6.9-3.3,6.9-3.3c-3.1,0.5-5.3-2.4-5.3-2.4c-0.7-1.1-0.7-2.2-0.7-2.3c0-2.9,1.9-3.5,3.5-3.5
		c5,0.2,8.9,4.2,8.9,9.2c0,2.4-1,4.7-2.6,6.4c-0.2,0.3-0.5,0.5-0.7,0.7c-0.2,0.2-0.5,0.4-0.8,0.6c-0.3,0.2-0.5,0.3-0.8,0.5
		c-0.3,0.1-0.5,0.3-0.8,0.4c-0.8,0.3-1.7,0.5-2.7,0.6c-0.3,0-0.6,0-1,0h-0.4v0l-23.7,0l-1.6-0.7c-1.4-0.6-2.9-1.8-4-3.3
		c2.3-2,4.3-4.9,4.8-8.2c0.6-0.5,0.9-1.2,0.9-2c0-0.9-0.5-1.8-1.2-2.2c-1-4.4-4.1-7.9-8-9c-0.7-0.7-1.2-1.1-1.6-1.3
		c-0.5-0.3-0.8-0.3-1-0.3c-0.2,0-0.5,0-1,0.3c-0.4,0.2-0.9,0.6-1.6,1.3c-3.9,1.1-7,4.6-8,9c-0.7,0.4-1.2,1.3-1.2,2.2
		c0,0.8,0.4,1.5,0.9,2c0.4,3.3,2.6,6.3,5,8.4c-0.6,0.8-1.9,2.2-4,3.2l-1.3,0.6l-24.2,0v0h-0.4c-0.2,0-0.3,0-0.5,0
		c-0.2,0-0.3,0-0.5,0c-0.1,0-0.3,0-0.4,0c0,0-0.1,0-0.1,0c-0.1,0-0.2,0-0.3,0c0,0-0.1,0-0.1,0c-0.1,0-0.3,0-0.4-0.1
		c-0.1,0-0.3-0.1-0.4-0.1c0,0-0.1,0-0.1,0c-0.1,0-0.2-0.1-0.3-0.1c0,0-0.1,0-0.1,0c-0.1,0-0.3-0.1-0.4-0.1c-0.3-0.1-0.6-0.2-0.8-0.4
		c-0.3-0.1-0.5-0.3-0.8-0.5c-0.3-0.2-0.5-0.4-0.8-0.6c-0.1-0.1-0.1-0.1-0.2-0.2c-0.2-0.2-0.4-0.3-0.5-0.5c-1.6-1.7-2.6-4-2.6-6.4
		c0-5,4-9,8.9-9.2c1.6,0,3.5,0.7,3.5,3.5c0,0,0,1.2-0.7,2.3c0,0-2.2,2.9-5.3,2.4c0,0,2.7,3.5,6.9,3.3c0.5,0,1,0,1.4-0.1
		c0,0-1.8,3.2-2.8,3.9c0,0,3.5,2.1,7.7-0.5c1.3-0.8,2.5-1.8,3.5-3c3.5-4.5,3.1-10.9-0.5-15.2c-0.6-0.7-1.3-1.4-2-2
		c-0.2-0.2-0.4-0.3-0.6-0.4c0,0,0,0,0,0c0,0-0.1,0-0.1-0.1c-0.2-0.1-0.3-0.2-0.5-0.3c0,0,0,0,0,0c0,0,0,0,0,0c0,0,0,0-0.1,0
		c-0.2-0.1-0.4-0.2-0.5-0.3c0,0,0,0,0,0c0,0,0,0,0,0c-0.2-0.1-0.4-0.2-0.6-0.4c-0.8-0.4-1.7-0.8-2.6-1.1c0,0,0,0,0,0
		c-0.2-0.1-0.4-0.1-0.5-0.2c0,0,0,0,0,0c-0.9-0.3-1.8-0.5-2.7-0.6c0,0,0,0-0.1,0c-0.2,0-0.3,0-0.5-0.1c0,0,0,0,0,0
		c-0.7-0.1-1.5-0.1-2.2-0.1c-0.2,0-0.4,0-0.6,0h0h0c0,0,0,0-0.1,0c-0.2,0-0.4,0-0.5,0l-0.1,0c0,0,0,0,0,0c-0.2,0-0.4,0-0.5,0
		c0,0,0,0-0.1,0l0,0c-0.2,0-0.4,0-0.5,0.1h0c0,0,0,0,0,0c0,0,0,0,0,0c-0.8,0.1-1.5,0.2-2.2,0.4l0,0c0,0-0.1,0-0.1,0
		c-0.1,0-0.3,0.1-0.4,0.1c-0.1,0-0.2,0-0.2,0.1c-0.1,0-0.2,0.1-0.3,0.1c-0.1,0-0.2,0.1-0.3,0.1c0,0,0,0-0.1,0
		c-0.1,0-0.2,0.1-0.3,0.1c-0.1,0-0.1,0-0.2,0.1c0,0-0.1,0-0.1,0c-0.1,0-0.2,0.1-0.3,0.1C84.2,56,84.1,56,84,56
		c-0.1,0-0.2,0.1-0.3,0.1c-0.1,0-0.2,0.1-0.3,0.2c-0.1,0-0.2,0.1-0.2,0.1c-0.1,0-0.1,0.1-0.2,0.1c-0.1,0-0.1,0.1-0.2,0.1
		c0,0,0,0,0,0c0,0,0,0,0,0c-0.1,0-0.1,0.1-0.2,0.1c-0.2,0.1-0.4,0.2-0.6,0.3c-5.6,3.3-9.3,9.4-9.3,15.9c0,7.5,3.5,14,11.8,16.7
		c0.5,0.2,1,0.3,1.4,0.4c-1.9,0.8-3.8,2-5.8,2.6c-1,0.3-2,0.3-3,0c-1.7-0.5-3.4-1.3-5.1-1.8c-1.8-0.5-3.6-0.7-5.4-0.7
		c-2.2,0-4.3,0.4-6.1,1.1c0,0-2.7,0.8-4.7,3.8c0,0,0,0,0,0c0,0,0,0,0,0c0,0,0,0,0,0c0.2,0.1,0.5,0.2,0.9,0.3c0.1,0,0.2,0.1,0.3,0.1
		c0.2,0.1,0.4,0.1,0.5,0.2c0.5,0.2,1,0.3,1.2,0.4c0.1,0,0.1,0,0.1,0h0c0,0-0.1,0-0.2,0c-0.1,0-0.1,0.1-0.2,0.1c0,0-0.1,0.1-0.1,0.1
		c0,0,0,0,0,0c0,0-0.1,0-0.1,0.1c0,0,0,0,0,0c0,0-0.1,0.1-0.1,0.1c0,0,0,0,0,0c0,0-0.1,0.1-0.1,0.1c0,0,0,0,0,0c0,0-0.1,0-0.1,0.1
		c0,0,0,0,0,0c0,0-0.1,0-0.1,0.1c0,0-0.1,0.1-0.1,0.1c0,0,0,0,0,0c0,0,0,0-0.1,0c-0.4,0.4-0.9,0.7-1.3,1.2c-0.8,0.8-1.4,1.8-1.9,2.8
		c-1.1,2.4-1.1,5.2-0.8,7.7c1.6-1.1,3.1-2.2,4.8-3.2c1.6-0.9,3.4-1.5,5.3-1.7c-5.1,3.3-8,9.6-8.5,15.6c0,0.4-0.1,0.8-0.1,1.2
		c-0.2,8.5,4.7,16.7,12.3,20.4c4.6,2.3,10.2,2.9,15.3,1.6c6.1-1.8,8.5-5.5,8.5-5.5l0.3-0.6V155l35.1,11.8l35.6-11.8v-18.4l0.3,0.6
		c0,0,2.3,3.7,8.5,5.5c5,1.3,10.7,0.7,15.3-1.6c7.6-3.7,12.5-12,12.3-20.4c0-0.4,0-0.8-0.1-1.2c-0.5-6-3.4-12.2-8.5-15.6
		c1.9,0.2,3.6,0.8,5.3,1.7c1.7,0.9,3.2,2.1,4.8,3.2c0.4-2.5,0.3-5.3-0.8-7.7C199,100,198.4,99.1,197.6,98.2 M91.6,119.7
		c-0.1-0.3-0.3-0.5-0.5-0.8c0,0,0-0.1-0.1-0.1c-0.1-0.1-0.1-0.2-0.2-0.3l-0.1-0.1c-0.1-0.1-0.2-0.2-0.2-0.3
		c-0.2-0.3-0.4-0.6-0.7-0.9c-2.7-3.2-6.8-4.2-10.8-3.1c0.1,0,0.9,1,1,1.1c0.6,0.7,1.2,1.4,1.7,2.2c1.4,2.1,2.3,4.4,2.3,6.9
		c0,0-1.4-1.7-3-1.7c0.6,3.1,1.7,7.2-1.1,9.6c-2.1,1.8-5.1,1.3-7.4,0.3c-3.8-1.6-6.5-4.9-7.3-8.9c-0.2-0.8-0.2-1.6-0.2-2.4
		c0-0.2,0-0.4,0-0.6c0-0.1,0-0.1,0-0.2c0-0.4,0.1-0.8,0.2-1.3c0-0.1,0-0.1,0-0.2c0-0.2,0.1-0.4,0.1-0.6v0l0,0c0-0.2,0.1-0.3,0.1-0.5
		c0-0.1,0-0.1,0-0.2c0-0.1,0.1-0.2,0.1-0.4c0-0.1,0-0.1,0.1-0.2c0-0.1,0.1-0.2,0.1-0.4c0-0.1,0-0.1,0.1-0.2c0.1-0.3,0.3-0.7,0.5-1
		c0,0,0.1-0.1,0.1-0.1c0.1-0.1,0.1-0.2,0.2-0.3c0-0.1,0.1-0.1,0.1-0.2c0.1-0.1,0.1-0.2,0.2-0.3c0,0,0.1-0.1,0.1-0.1
		c0.1-0.2,0.2-0.3,0.3-0.5c0.1-0.1,0.1-0.2,0.1-0.2c0.1-0.1,4.4-7.2,21.4-14.7l2.7-1.2V119.7z M91.6,95.2c-0.2,0.1-0.4,0.2-0.7,0.3
		c-0.5,0.2-0.9,0.4-1.3,0.6c0,0,0,0,0,0c0,0-0.1,0-0.1,0.1c0,0-0.1,0-0.1,0c0,0,0,0-0.1,0c0,0-0.1,0-0.1,0c-0.2,0.1-0.3,0.1-0.4,0.2
		c0,0,0,0,0,0c0,0-0.1,0-0.1,0c-18.9,8.2-23.3,16.1-23.3,16.1c-0.2,0.3-0.4,0.6-0.6,0.9c0,0-0.1,0.1-0.1,0.1
		c-0.1,0.1-0.1,0.2-0.2,0.3c0,0-0.1,0.1-0.1,0.1c-0.1,0.2-0.2,0.3-0.2,0.5c-0.1,0.2-0.2,0.3-0.2,0.5l-0.1,0.1
		c-0.1,0.1-0.1,0.2-0.2,0.4c0,0,0,0.1-0.1,0.1c-0.1,0.3-0.3,0.7-0.4,1c-1.8,5.5,0.1,11.9,4.4,15.7c1.9,1.7,4.5,2.9,7,3.4
		c4.8,0.8,9.7-2.4,9.7-7.5c0-0.3,0-0.6,0-0.9c0-0.2-0.1-0.3-0.1-0.5c0,0,0.1,0,0.2,0.1c0,0,0.1,0.1,0.1,0.1c0.1,0.1,0.1,0.2,0.2,0.3
		c0,0,0,0.1,0.1,0.1c0,0.1,0.1,0.1,0.1,0.2c0,0,0,0,0,0.1c0,0.1,0.1,0.1,0.1,0.2c0,0,0,0,0,0c0,0.1,0.1,0.2,0.1,0.3c0,0,0,0,0,0
		c0.1,0.2,0.1,0.3,0.2,0.5c0,0,0,0,0,0c0.1,0.2,0.1,0.5,0.2,0.8c0,0,0,0,0,0c0,0.1,0,0.1,0,0.2c0,0,0,0.1,0,0.1c0,0.1,0,0.3,0,0.4
		c0,0,0,0.1,0,0.1c0,0,0,0.1,0,0.1c0,0,0,0,0,0c0,0.2,0,0.4-0.1,0.5c0,0.1,0,0.2,0,0.2c0,0,0,0,0,0.1c0-0.2,0.4-0.6,0.5-0.8
		c0.2-0.3,0.3-0.6,0.4-0.9c0.1-0.3,0.2-0.6,0.3-0.9c0.1-0.3,0.1-0.5,0.2-0.8c0.1-0.3,0.1-0.7,0.1-1c0.1-1.1,0-2.3-0.2-3.4
		c-0.1-0.5-0.2-0.9-0.3-1.4c-0.3-1.1-0.7-2.3-1.1-3.3c-0.4-0.8-0.8-1.6-1.4-2.3c0,0,0,0,0,0c-0.1-0.1-0.2-0.3-0.3-0.4c0,0,0,0,0,0
		c0.1,0,0.5,0.1,1,0.3c0.1,0,0.3,0.1,0.5,0.2c0.1,0,0.2,0.1,0.3,0.1c0.1,0,0.1,0.1,0.2,0.1c0.1,0.1,0.2,0.1,0.4,0.2
		c0.8,0.5,1.7,1.2,2.4,2.2c2.9,4.1,4.1,10.1,1.8,14.8c-2.3,4.8-8.1,6.7-13.1,6.7c-10.7-0.1-19.4-8.8-19.4-19.6
		c0-6.6,3.5-11.9,8.3-16.3c0.3-0.3,0.6-0.5,0.9-0.8c0.5-0.4,1.4-1.2,2.4-1.9c0,0,0.1,0,0.1,0c0,0,0,0,0,0c0.9-0.7,1.8-1.3,2.3-1.5
		c0,0-2.3-0.2-5,1.1c-2.2-0.2-5.4,0-8.7,1.6c-0.8,0.4-1.5,0.8-2.1,1.3c0,0,0-0.1,0-0.2c0-0.1,0-0.2,0-0.3c0-0.2,0-0.3,0-0.5
		c0-0.1,0-0.1,0-0.2v0c0-0.1,0-0.2,0.1-0.3c0,0,0-0.1,0-0.1c0-0.1,0-0.2,0.1-0.3c0,0,0,0,0,0c0-0.2,0.1-0.4,0.2-0.5
		c0-0.1,0.1-0.2,0.1-0.3c0,0,0-0.1,0-0.1c0-0.1,0.1-0.1,0.1-0.2c0,0,0-0.1,0-0.1c0-0.1,0.1-0.2,0.1-0.3c1.6-3.1,5.1-4.5,7.8-5.2l0,0
		v0c0-0.1-0.3-1.8-4.9-1.9c0.2-0.2,0.5-0.3,0.8-0.5c1.1-0.6,2.3-1,3.8-1.2c1.7-0.3,3.6-0.2,5.5,0.1c1.7,0.3,3.3,0.9,5.2,1.7
		c0.2,0.1,0.4,0.2,0.6,0.2c0.4,0.2,0.9,0.4,1.4,0.6c0,0,0,0,0,0c0.2,0.1,0.4,0.2,0.6,0.3c0,0,0,0,0,0c0,0,0,0,0,0
		c0.1,0,0.2,0.1,0.3,0.1c0,0,0.1,0,0.1,0c0.1,0,0.1,0.1,0.2,0.1c0,0,0.1,0,0.1,0c0.1,0,0.2,0.1,0.3,0.1c0,0,0,0,0.1,0
		c0.1,0,0.2,0.1,0.2,0.1c0,0,0.1,0,0.1,0c0.1,0,0.2,0.1,0.2,0.1c0,0,0,0,0.1,0c0.1,0.1,0.2,0.1,0.3,0.2c0,0,0,0,0.1,0
		c0.1,0,0.2,0.1,0.2,0.1c0,0,0.1,0,0.1,0c0.2,0.1,0.5,0.3,0.7,0.4c0.3,0.2,0.6,0.4,0.8,0.5c0,0,0,0,0.1,0c0.2,0.1,0.3,0.3,0.5,0.4
		c0.1,0.1,0.2,0.2,0.2,0.2c0,0,0,0,0,0c0,0,0,0,0,0c0,0,0,0,0,0v0c0,0,0,0,0,0c0,0,0,0,0,0c0,0,0,0,0,0c0,0,0,0,0,0c0,0,0,0,0,0
		c0,0,0-0.1,0-0.1c0,0,0,0,0,0c0,0,0-0.1,0-0.1c0,0,0,0,0,0c0,0,0,0,0-0.1c0,0,0,0,0-0.1c0,0,0,0,0,0c0,0,0,0,0,0c0,0,0-0.1,0-0.1
		c0,0,0,0,0,0c0,0,0-0.1-0.1-0.1c0,0,0,0,0-0.1c0,0,0,0,0,0c0,0,0-0.1-0.1-0.1c0,0,0,0,0-0.1c0,0-0.1-0.1-0.1-0.1c0,0,0,0,0,0l0-0.1
		c0-0.1-0.1-0.1-0.1-0.2c0,0,0,0,0,0c0,0,0,0,0-0.1c0,0-0.1-0.1-0.1-0.1c0,0,0,0,0-0.1l0-0.1c0,0-0.1-0.1-0.1-0.1c0,0,0-0.1-0.1-0.1
		c0,0,0,0-0.1-0.1c0,0,0,0,0,0c-0.1-0.1-0.1-0.1-0.2-0.2c0,0,0,0,0,0c0,0-0.1-0.1-0.1-0.1c0,0-0.1-0.1-0.1-0.1h0l3.4-1.6
		c0.1,0,0.2-0.1,0.3-0.2l0,0c0,0,0,0,0,0c0.4-0.2,0.7-0.4,1.1-0.5c0,0,0.1,0,0.1,0c0.1-0.1,0.3-0.1,0.4-0.2c0.1-0.1,0.3-0.1,0.4-0.2
		c0,0,5.1-2.3,4.5-4c0,0-2.4-0.1-6.3-1.6c0,0,0,0,0,0c0,0,0,0-0.1,0c0,0,0,0,0,0c0,0,0,0,0,0c-0.1-0.1-0.3-0.1-0.4-0.1c0,0,0,0,0,0
		c-0.1,0-0.1,0-0.2-0.1c0,0,0,0,0,0c0,0-0.1,0-0.1-0.1l0,0c-0.2-0.1-0.4-0.2-0.6-0.3c0,0,0,0,0,0c0,0,0,0,0,0
		c-0.1,0-0.2-0.1-0.3-0.1c-0.4-0.2-0.7-0.4-1.1-0.7c0,0,0,0,0,0c-0.3-0.2-0.6-0.4-0.9-0.7l0,0c-0.2-0.1-0.3-0.2-0.4-0.4
		c0,0-0.1-0.1-0.1-0.1l0,0c-0.2-0.2-0.5-0.4-0.7-0.7c0,0,0,0,0,0c0,0-0.1-0.1-0.1-0.1c-0.1-0.1-0.2-0.2-0.3-0.3c0,0-0.1-0.1-0.1-0.1
		c-0.1-0.1-0.2-0.3-0.4-0.4c0,0,0,0,0,0c-0.1-0.1-0.2-0.3-0.3-0.4l0,0c0,0,0,0,0-0.1c-0.1-0.2-0.2-0.3-0.3-0.5c0,0,0,0-0.1-0.1h0
		c-0.1-0.1-0.1-0.2-0.2-0.3v0c0,0-0.1-0.1-0.1-0.1c-0.2-0.4-0.4-0.7-0.6-1.1l0,0c-0.1-0.1-0.1-0.2-0.2-0.4v0c0,0,0,0,0-0.1
		c-0.1-0.2-0.1-0.3-0.2-0.5v0c0-0.1-0.1-0.1-0.1-0.2c-0.1-0.1-0.1-0.3-0.2-0.5c0,0,0-0.1,0-0.1v0c-0.1-0.4-0.3-0.7-0.4-1.1v0
		c0-0.1,0-0.1-0.1-0.2c0-0.1-0.1-0.2-0.1-0.4v0c0,0,0-0.1,0-0.1c0-0.2-0.1-0.4-0.1-0.6c0,0,0-0.1,0-0.1v0c0-0.2-0.1-0.4-0.1-0.6
		c0,0,0,0,0-0.1c0-0.2-0.1-0.3-0.1-0.5c0-0.1,0-0.1,0-0.2c0-0.1,0-0.3,0-0.4c0-0.1,0-0.1,0-0.2c0-0.1,0-0.3,0-0.4v0c0,0,0-0.1,0-0.1
		c0-0.2,0-0.4,0-0.7c0-8.8,7.2-15.9,16-15.8c4.5,0,9.8,2.1,12.2,6c1.7,2.7,2,5.9,0.8,8.8c-0.5,1.2-1.3,2.3-2.3,3.2
		c-1,0.8-2.1,1.4-3.3,1.9c0.2-0.4,1-1.8,1.3-3.3c0,0,0.9-3.3-0.7-5.9c0,0,0,0,0,0.1v0c0,0,0,0,0,0c0,0,0,0,0,0h0c0,0.1,0,0.1,0,0.2
		v0c0,0,0,0,0,0v0c0,0.2,0,0.4,0,0.7v0v0c0,0.1,0,0.2,0,0.2c0,0,0,0,0,0v0c0,0.1,0,0.2,0,0.2c0,0,0,0,0,0v0c0,0.1,0,0.2,0,0.3
		c0,0,0,0,0,0c0,0.1,0,0.2,0,0.3v0c0,0,0,0,0,0v0c0,0.1,0,0.2,0,0.3c0,0,0,0,0,0c0,0.1,0,0.2-0.1,0.2v0c0,0,0,0,0,0
		c0,0.1,0,0.2-0.1,0.2l0,0c0,0,0,0,0,0c0,0,0,0.1,0,0.1l0,0.1h0c0,0,0,0.1,0,0.1c0,0,0,0,0,0c0,0,0,0,0,0.1c0,0-0.1,0.1-0.1,0.1
		c0,0,0,0,0,0c-0.1,0.1-0.2,0.2-0.3,0.3c-0.7,0.5-1.8,1.1-3.2,1.1c-0.3,0-0.7,0-1-0.1c2.6-1.9,2.6-5.2,2.6-5.3
		c0-2.7-1.5-5.1-4.2-5.8c-5.2-1.4-10.9,2.6-12.6,7.5c-2.4,6.8,2.2,15.4,9.7,15.7v0l1.8,0V95.2z M118.6,68.7c0-0.3,0-0.6,0-0.8
		l1.7-0.4V70l-1.7-1C118.6,68.9,118.6,68.8,118.6,68.7 M122.6,66.9l3.2-0.8V73l-3.2-1.8V66.9z M128.1,66.2l3.2,0.8v4.3l-3.2,1.8
		V66.2z M133.6,67.5l1.7,0.4c0,0.3,0,0.5,0,0.8c0,0.1,0,0.1,0,0.2l-1.8,1V67.5z M125.8,59l1.2-1l1.2,1c3.1,0.5,5.7,3,6.7,6.4
		l-7.9-1.9l-7.9,1.9C120.1,62.1,122.7,59.6,125.8,59 M119.4,72.1l7.6,4.3l7.6-4.3c-1.7,3.8-5.8,6.5-7.6,6.5
		C125.4,78.5,121.2,75.8,119.4,72.1 M123.2,79.8c1.4,0.8,2.7,1.3,3.8,1.3c1.1,0,2.6-0.5,4.1-1.4c0.9,1.3,2.1,2.4,3.4,3.2
		c-2.7,2.3-6.2,3.5-7.2,3.9c-1.1-0.3-4.9-1.4-7.5-3.8C121.4,81.8,122.5,80.6,123.2,79.8 M159.9,153.2l-33.1,11l-32.6-11V84.6h23.6
		c3.6,3.4,9,4.7,9.2,4.7l0.3,0.1l0.3-0.1c0.2-0.1,5.1-1.5,8.7-4.7h23.5V153.2z M162.4,98l2.7,1.2c17,7.5,21.4,14.7,21.4,14.7
		c0,0.1,0.1,0.2,0.1,0.2c0.5,0.6,0.9,1.3,1.2,2.1c0.3,0.7,0.6,1.5,0.8,2.2c0.2,0.9,0.3,1.9,0.3,2.8c0,0.8-0.1,1.6-0.2,2.4
		c-0.8,4-3.6,7.3-7.3,8.9c-2.3,1-5.3,1.5-7.4-0.3c-2.8-2.3-1.7-6.5-1.1-9.6c-1.7,0-3,1.7-3,1.7c0-2.5,0.9-4.9,2.3-6.9
		c0.5-0.8,1.1-1.5,1.7-2.2c0.1-0.1,0.8-1.1,1-1.1c-4-1.2-8.1-0.2-10.8,3.1c-0.2,0.3-0.4,0.6-0.7,0.9c-0.3,0.4-0.6,0.8-0.8,1.2
		c-0.1,0.1-0.2,0.3-0.2,0.4V98z M198.1,104.7c-0.7-0.5-1.4-0.9-2.1-1.3c-3.2-1.6-6.5-1.8-8.7-1.6c-2.6-1.4-5-1.1-5-1.1
		c0.5,0.2,1.4,0.8,2.3,1.5c0,0,0,0,0,0c0,0,0,0,0.1,0c1,0.7,1.9,1.6,2.4,1.9c0.3,0.3,0.6,0.5,0.9,0.8c4.7,4.4,8.2,9.6,8.3,16.3
		c0.1,10.7-8.6,19.5-19.4,19.6c-5,0-10.8-1.9-13.1-6.7c-2.2-4.7-1.1-10.7,1.8-14.8c1.8-2.6,4.5-3,4.7-3.1c-1.8,2-2.7,4.7-3.1,7.4
		c-0.3,2-0.4,4.2,0.4,6.1c0.2,0.4,0.4,0.9,0.6,1.3c0.1,0.1,0.3,0.3,0.3,0.4c-0.5-3.3,1.2-4.6,1.2-4.6c0,0.2-0.1,0.3-0.1,0.5
		c0,0.3-0.1,0.6-0.1,0.9c0,5.1,4.9,8.4,9.7,7.5c2.5-0.4,5.1-1.7,7-3.4c4.4-3.8,6.2-10.1,4.4-15.7c-0.1-0.2-0.1-0.4-0.2-0.5
		c-0.2-0.5-0.4-1.1-0.7-1.6c-0.3-0.5-0.6-1-0.9-1.5c-0.1-0.2-0.2-0.3-0.3-0.5c0,0-4.4-7.9-23.3-16.1c0,0,0,0-0.1,0
		c0,0-0.1-0.1-0.2-0.1c0,0-0.1,0-0.1-0.1c-0.1,0-0.1-0.1-0.2-0.1c-0.4-0.2-1-0.4-1.6-0.7c-0.2-0.1-0.5-0.2-0.7-0.3V84.7l1.8,0l0,0
		c7.5-0.3,12.1-8.8,9.7-15.7c-1.7-4.9-7.3-8.9-12.6-7.5c-2.7,0.7-4.2,3.1-4.2,5.8c0,0.1,0,3.5,2.6,5.3c-0.4,0-0.7,0.1-1,0.1
		c-1.4,0-2.4-0.6-3.2-1.1c-0.1-0.1-0.1-0.1-0.2-0.2c0,0-0.1-0.1-0.1-0.1c0,0,0,0,0,0c0,0,0-0.1-0.1-0.1c0,0,0,0,0-0.1
		c0,0,0-0.1,0-0.1l0-0.1c0,0,0-0.1,0-0.1c0,0,0,0,0,0c0,0,0,0,0,0c0-0.1-0.1-0.2-0.1-0.2c0,0,0,0,0,0c0-0.1,0-0.2-0.1-0.2
		c0,0,0,0,0,0c0-0.1,0-0.2,0-0.3c0,0,0,0,0,0c0-0.1,0-0.2,0-0.3c0,0,0,0,0,0c0-0.1,0-0.2,0-0.3c0,0,0,0,0,0c0-0.1,0-0.2,0-0.2
		c0,0,0,0,0,0c0-0.1,0-0.2,0-0.2v0c0-0.1,0-0.2,0-0.3c0,0,0-0.1,0-0.1c0-0.1,0-0.2,0-0.3c0,0,0,0,0,0c0-0.1,0-0.2,0-0.2c0,0,0,0,0,0
		v0c0,0,0,0,0,0c0,0,0,0,0,0c0,0,0,0,0,0c-1.6,2.6-0.7,5.9-0.7,5.9c0.3,1.6,1.1,3,1.3,3.3c-1.2-0.5-2.4-1-3.3-1.9
		c-1-0.9-1.8-2-2.3-3.2c-1.3-2.9-0.9-6.2,0.8-8.8c2.5-3.9,7.7-6,12.2-6c8.8-0.1,16,7,16,15.8c0,0.2,0,0.4,0,0.6c0,0.1,0,0.1,0,0.2
		c0,0.1,0,0.3,0,0.4c0,0.1,0,0.1,0,0.2c0,0.1,0,0.3,0,0.4c0,0.1,0,0.1,0,0.2c0,0.2,0,0.3-0.1,0.5c0,0,0,0.1,0,0.1
		c0,0.2-0.1,0.4-0.1,0.6c0,0.1,0,0.1,0,0.2c0,0.1-0.1,0.3-0.1,0.4c0,0.1,0,0.1,0,0.2c0,0.1-0.1,0.3-0.1,0.4c0,0.1,0,0.1-0.1,0.2
		c0,0.1-0.1,0.3-0.1,0.4c0,0,0,0.1,0,0.1c-0.1,0.2-0.1,0.4-0.2,0.5c0,0,0,0.1,0,0.1c-0.1,0.1-0.1,0.3-0.2,0.4c0,0.1,0,0.1-0.1,0.2
		c-0.1,0.1-0.1,0.2-0.2,0.4c0,0.1-0.1,0.1-0.1,0.2c-0.1,0.1-0.1,0.2-0.2,0.4c0,0.1-0.1,0.1-0.1,0.2c-0.2,0.3-0.4,0.7-0.6,1
		c0,0-0.1,0.1-0.1,0.1c-0.1,0.1-0.1,0.2-0.2,0.3c0,0.1-0.1,0.1-0.1,0.2c-0.1,0.1-0.1,0.2-0.2,0.3c0,0-0.1,0.1-0.1,0.2
		c-0.1,0.1-0.2,0.2-0.3,0.4c0,0,0,0.1-0.1,0.1c-0.1,0.1-0.2,0.3-0.4,0.4c0,0-0.1,0.1-0.1,0.1c-0.1,0.1-0.2,0.2-0.3,0.3
		c0,0-0.1,0.1-0.1,0.1c-0.1,0.1-0.2,0.2-0.3,0.3c0,0-0.1,0.1-0.1,0.1c-0.1,0.1-0.2,0.2-0.3,0.3c0,0-0.1,0.1-0.1,0.1
		c-0.1,0.1-0.3,0.2-0.4,0.4c0,0-0.1,0-0.1,0.1c-0.1,0.1-0.2,0.2-0.4,0.3c0,0-0.1,0.1-0.1,0.1c-0.1,0.1-0.2,0.1-0.3,0.2
		c-0.1,0-0.1,0.1-0.2,0.1c-0.1,0.1-0.2,0.1-0.3,0.2c0,0-0.1,0.1-0.1,0.1c-0.2,0.1-0.3,0.2-0.5,0.3c-0.1,0.1-0.2,0.1-0.3,0.1
		c-0.4,0.2-0.7,0.3-1.3,0.5c0,0,0,0,0,0c0,0,0,0,0,0c0,0,0,0-0.1,0l0,0c-4,1.5-6.3,1.6-6.3,1.6c-0.6,1.7,4.5,4,4.5,4
		c0.2,0.1,0.3,0.1,0.4,0.2c0.1,0.1,0.3,0.1,0.4,0.2c0.4,0.2,0.8,0.4,1.2,0.6c0,0,0,0,0,0c0.1,0.1,0.2,0.1,0.3,0.2l0,0l3.4,1.6
		c-0.1,0.1-0.2,0.2-0.2,0.2c0,0,0,0,0,0c-0.1,0.1-0.1,0.2-0.2,0.2c0,0,0,0-0.1,0.1c-0.1,0.1-0.1,0.1-0.2,0.2c0,0,0,0,0,0.1
		c0,0.1-0.1,0.1-0.1,0.2c0,0,0,0,0,0.1c0,0.1-0.1,0.1-0.1,0.2c0,0,0,0,0,0.1c0,0.1-0.1,0.1-0.1,0.2c0,0,0,0,0,0.1
		c0,0.1-0.1,0.1-0.1,0.2c0,0,0,0,0,0.1c0,0,0,0.1-0.1,0.1c0,0,0,0,0,0c0,0,0,0.1-0.1,0.1c0,0,0,0,0,0c0,0,0,0.1,0,0.1c0,0,0,0,0,0
		c0,0,0,0.1,0,0.1c0,0,0,0,0,0c0,0,0,0.1,0,0.1c0,0,0,0,0,0c0,0,0,0,0,0.1c0,0,0,0,0,0c0,0,0,0,0,0c0,0,0,0,0,0c0,0,0,0,0,0
		c0,0,0,0,0,0c0.1-0.1,0.1-0.2,0.2-0.2c0.1-0.1,0.2-0.2,0.3-0.2c0.1-0.1,0.3-0.2,0.5-0.4c0.1-0.1,0.2-0.2,0.4-0.2
		c0.1,0,0.1-0.1,0.2-0.1c0.1-0.1,0.3-0.2,0.4-0.3c0.8-0.5,1.8-0.9,2.7-1.3c0.4-0.2,0.8-0.4,1.2-0.5c0.3-0.1,0.6-0.3,0.9-0.4
		c0.2-0.1,0.4-0.2,0.6-0.2c1.9-0.8,3.5-1.3,5.2-1.7c1.9-0.4,3.8-0.4,5.5-0.1c1.5,0.2,2.7,0.6,3.8,1.2c0.3,0.1,0.5,0.3,0.8,0.5
		c-4.6,0.1-4.9,1.9-4.9,1.9v0l0,0c2.7,0.7,6.2,2.2,7.8,5.2c0.2,0.3,0.3,0.6,0.4,0.9c0.1,0.2,0.1,0.4,0.2,0.5
		c0.1,0.3,0.1,0.5,0.2,0.7c0,0.3,0.1,0.6,0.1,0.8C198.1,104.5,198.1,104.6,198.1,104.7"/>
	<path class="st0" d="M137.6,52.7v-2.1l-1.7,1.1C136.5,52,137,52.3,137.6,52.7"/>
	<path class="st0" d="M126.9,53.2c0,0,0.7,0.8,1.8,1.5v-5.1c-1.3-0.1-2.5-0.1-3.6,0.1v5.1C126.2,54,126.9,53.2,126.9,53.2"/>
	<path class="st0" d="M128.7,49.5v-0.4h-3.6v0.4C126.2,49.4,127.4,49.4,128.7,49.5"/>
	<path class="st0" d="M130.8,28.5l-3.8-6.6l-3.7,6.3c1-0.2,2-0.3,3.1-0.3C128,27.9,129.5,28.1,130.8,28.5"/>
	<path class="st0" d="M137.6,52.7c-0.6-0.4-1.1-0.7-1.7-1l-2,1.3c2.4,1,12.2,4.6,20.9-1.5l-5.8-5.2l4.1-9.6c0,0-6.4,5.3-15.1,2.3
		l-0.4-0.2v11.8V52.7z"/>
	<path class="st0" d="M128.7,49.1v0.4c1.2,0.1,2.5,0.3,3.8,0.7v-0.5c-0.5-2.2-1-5.2-1.5-7.9h-2.3v3.4h-3.6v-3.4h-3.2v-3.3h3.2v-3.3
		h3.6v3.3h1.7c-0.3-1.6-0.5-2.8-0.5-2.8l7.7,2.9v-5.7c0,0-4.1-2.6-9.6-3.1c-2.6,0-5.1,0.4-7.3,1.5c0-0.2,0-0.4,0-0.6
		c-1.4,0.5-2.8,1.2-4.2,2.2v19.6c0,0,3.5-2.5,8.7-3.1v-0.4H128.7z"/>
	<path class="st0" d="M128,30c-2.3-0.2-4.8,0-7.3,0.9c0,0.2,0,0.4,0,0.6C122.9,30.4,125.4,30,128,30"/>
	<path class="st0" d="M130.4,38.6h1.4v3.3H131c0.5,2.7,1,5.7,1.5,7.9v-0.7l5.1,1.5V38.8l-7.7-2.9C130,35.9,130.1,37,130.4,38.6"/>
	<path class="st0" d="M132.5,49.8v0.5c0,0,0.1,0,0.1,0C132.5,50.1,132.5,50,132.5,49.8"/>
	<path class="st0" d="M135.9,51.7l1.7-1.1l-5.1-1.5v0.7c0,0.2,0.1,0.3,0.1,0.5C133.7,50.6,134.8,51.1,135.9,51.7"/>
	<path class="st0" d="M166.9,240.1c-1.1-0.5-2.4-0.6-3.6-0.2c-1.2,0.4-2.1,1.3-2.7,2.4c-6.1,12.9-19.3,21.3-33.6,21.3
		c-14.3,0-27.5-8.4-33.6-21.3c-0.5-1.1-1.5-2-2.7-2.4c-1.2-0.4-2.5-0.4-3.6,0.2c-2.3,1.1-3.4,3.9-2.2,6.3
		c7.7,16.2,24.2,26.7,42.1,26.7c17.9,0,34.5-10.5,42.1-26.7C170.2,244,169.2,241.2,166.9,240.1"/>
	<path class="st0" d="M381.1,90.4l5.5,3.6c-2,2.8-5.3,4.6-9.4,4.6c-6.7,0-11.5-5-11.5-11.6c0-6.6,4.8-11.5,11.5-11.5
		c4,0,7.4,1.8,9.4,4.6l-5.5,3.6c-0.8-1.1-2.2-1.9-3.9-1.9c-3.1,0-4.9,2.3-4.9,5.2c0,2.9,1.8,5.2,4.9,5.2
		C379,92.3,380.3,91.6,381.1,90.4"/>
	<path class="st0" d="M389,77.6c0-1.6,1.3-3,3-3c1.7,0,3,1.3,3,3c0,1.7-1.3,3-3,3C390.4,80.6,389,79.3,389,77.6 M389.2,82.1h5.7
		v16.1h-5.7V82.1z"/>
	<path class="st0" d="M414.8,82.1v16.1h-5.7v-1.7c-0.8,1.2-2.2,2.1-4.4,2.1c-5,0-5.9-4.1-5.9-6.4V82.1h5.7v8.7
		c0,1.2,0.9,2.2,2.3,2.2c1.4,0,2.3-1,2.3-2.2v-8.7H414.8z"/>
	<path class="st0" d="M435.1,76v22.3h-5.7V97c-0.9,1.1-2.3,1.7-4.2,1.7c-5,0-7.5-4.2-7.5-8.5c0-4.2,2.5-8.5,7.5-8.5
		c1.9,0,3.3,0.7,4.2,1.7V76H435.1z M429.2,90.2c0-1.7-1.2-2.9-2.9-2.9c-1.8,0-2.9,1.2-2.9,2.9c0,1.7,1.1,2.9,2.9,2.9
		C428,93.1,429.2,91.9,429.2,90.2"/>
	<path class="st0" d="M453.5,88.2v10h-5.8v-1.5c-0.8,1.2-2.7,1.9-4.3,1.9c-2,0-5.4-0.8-5.4-4.7c0-5.4,6.8-5.4,7.8-5.4h1.9
		c0-1.5-0.9-2.3-2.3-2.3c-1.1,0-2.2,0.4-2.9,0.9l-3.7-2.5c1.8-1.8,4.2-2.9,7.4-2.9C451.3,81.7,453.5,84.4,453.5,88.2 M447.7,91.4
		h-0.4c-2.5,0-3.5,0.6-3.5,1.6c0,0.8,0.6,1.3,1.6,1.3c1.1,0,1.9-0.5,2.3-1.1V91.4z"/>
	<path class="st0" d="M473.8,76v22.3H468V97c-0.9,1.1-2.3,1.7-4.2,1.7c-5,0-7.5-4.2-7.5-8.5c0-4.2,2.5-8.5,7.5-8.5
		c1.9,0,3.3,0.7,4.2,1.7V76H473.8z M467.9,90.2c0-1.7-1.2-2.9-2.9-2.9c-1.8,0-2.9,1.2-2.9,2.9c0,1.7,1.1,2.9,2.9,2.9
		C466.7,93.1,467.9,91.9,467.9,90.2"/>
	<path class="st0" d="M376.6,112v36.3h-9.4v-12.1c-1.4,1.7-3.6,2.8-6.8,2.8c-8.2,0-12.2-6.9-12.2-13.8c0-6.9,4-13.8,12.2-13.8
		c3.2,0,5.4,1.1,6.8,2.7V112H376.6z M366.9,125.1c0-2.8-1.9-4.7-4.7-4.7c-2.9,0-4.7,2-4.7,4.7c0,2.7,1.8,4.7,4.7,4.7
		C365,129.8,366.9,127.9,366.9,125.1"/>
	<path class="st0" d="M408.9,112v26.3h-9.3v-2.8c-1.3,1.9-3.6,3.5-7.2,3.5c-8.2,0-9.6-6.6-9.6-10.5V112h9.3v14.2
		c0,2,1.5,3.6,3.8,3.6c2.3,0,3.7-1.6,3.7-3.6V112H408.9z"/>
	<path class="st0" d="M414.9,104.6c0-2.6,2.2-4.8,4.9-4.8c2.7,0,4.9,2.2,4.9,4.8c0,2.7-2.2,4.9-4.9,4.9
		C417.1,109.5,414.9,107.3,414.9,104.6 M415.1,112h9.3v26.3h-9.3V112z"/>
	<path class="st1" d="M454.6,122.8c-6.3,1.7-12.2,3.6-15,6.4c1.6,2,4,2.6,6.8,1.5c2.2-0.9,3.3-2.6,3.7-3.9l7.2,1.1
		c-0.5,3.7-3.4,7.5-8.2,9.5c-8.2,3.3-15.9,0.5-18.9-7.1c-2.9-7.1,0.2-15,7.6-18c6.7-2.8,14.6-0.6,18,8.2
		C456.1,121.5,455.6,122.5,454.6,122.8 M446.5,120.9c-1.4-2.1-3.5-2.9-6-1.9c-2.2,0.9-3.2,3-2.9,5.5
		C440.2,122.5,443.2,121.2,446.5,120.9"/>
	<path class="st0" d="M478.4,118.6v10.1c-7-0.8-7.8,2.7-7.8,6.9v9.9h-9.3v-26.3h9.3v4.1C472.3,120.3,475.4,118.6,478.4,118.6"/>
	<path class="st1" d="M509.4,125.1c0,8-5.9,13.8-14.1,13.8c-8.2,0-14.1-5.7-14.1-13.8c0-8,5.9-13.8,14.1-13.8
		C503.5,111.3,509.4,117.1,509.4,125.1 M500,125.1c0-2.9-2-4.7-4.7-4.7c-2.7,0-4.7,1.8-4.7,4.7c0,2.9,2,4.7,4.7,4.7
		C498,129.8,500,128,500,125.1"/>
	<polygon class="st0" points="347,95.5 347,98.3 338.1,98.3 338.1,83 341.1,83 341.1,95.5 	"/>
	<path class="st0" d="M359,91.6v6.7h-2.8v-1.2c-0.5,0.9-1.7,1.5-3.2,1.5c-1.7,0-3.9-0.9-3.9-3.3c0-3.7,4.5-3.7,6-3.7h1.2
		c0-1.6-0.6-2.3-2.3-2.3c-1,0-1.9,0.5-2.3,0.8l-1.9-1.4c1.2-1.1,2.8-1.8,4.6-1.8C357.9,86.9,359,88.9,359,91.6 M356.2,93.4h-0.2
		c-2,0-4.2,0-4.2,1.6c0,0.8,0.5,1.5,1.9,1.5c1.4,0,2.2-0.8,2.4-1.3V93.4z"/>
	<path class="st0" d="M492.4,87.2v15.3h-2.8V97c-0.7,0.9-1.8,1.6-3.5,1.6c-3.5,0-5.4-2.9-5.4-5.8c0-2.9,2-5.8,5.4-5.8
		c1.7,0,2.8,0.7,3.5,1.6v-1.3H492.4z M489.5,92.7c0-1.7-1.1-3.1-3-3.1c-1.9,0-3,1.4-3,3.1c0,1.7,1.1,3.1,3,3.1
		C488.4,95.9,489.5,94.4,489.5,92.7"/>
	<path class="st0" d="M505.5,87.2v11.1h-2.8v-1.4c-0.6,0.9-1.6,1.6-3.2,1.6c-2.8,0-4.1-2.3-4.1-4.6v-6.8h2.8v6.2
		c0,1.4,0.6,2.5,2.1,2.5c1.7,0,2.4-1.2,2.4-2.5v-6.2H505.5z"/>
	<path class="st0" d="M519.1,93.8h-8.2c0.4,1.5,1.6,2.3,3.1,2.3c1.3,0,2.1-0.7,2.5-1.1l2.2,1.3c-0.9,1.2-2.6,2.3-4.7,2.3
		c-3.7,0-6.1-2.4-6.1-5.8c0-3.5,2.6-5.8,5.7-5.8C516.9,86.9,519.6,89.4,519.1,93.8 M516.4,91.7c-0.3-1.4-1.3-2.3-2.8-2.3
		c-1.4,0-2.4,0.9-2.8,2.3H516.4z"/>
	<path class="st1" d="M469.2,177.4c-18.6,0-35.7-10.9-43.7-27.7c-1-2.2-0.1-4.8,2.1-5.8c2.2-1,4.8-0.1,5.8,2.1
		c6.5,13.8,20.6,22.7,35.8,22.7c15.2,0,29.3-8.9,35.8-22.7c1-2.2,3.6-3.1,5.8-2.1c2.2,1,3.1,3.6,2.1,5.8
		C504.9,166.6,487.8,177.4,469.2,177.4"/>
	<path class="st0" d="M280.7,163.3L280.7,163.3c-0.9,0-1.6-0.7-1.6-1.6V82.6c0-0.9,0.7-1.6,1.6-1.6c0.9,0,1.6,0.7,1.6,1.6v79.2
		C282.3,162.6,281.6,163.3,280.7,163.3"/>
</g>
</svg>
